<svg width="22" height="22" viewBox="0 0 22 22" fill="none" xmlns="http://www.w3.org/2000/svg">
<path d="M16 0.923172H6C3.23858 0.923172 1 3.16175 1 5.92317V15.9232C1 18.6846 3.23858 20.9232 6 20.9232H16C18.7614 20.9232 21 18.6846 21 15.9232V5.92317C21 3.16175 18.7614 0.923172 16 0.923172Z" stroke="white" stroke-width="1.5" stroke-linecap="round" stroke-linejoin="round"/>
<path d="M15 10.2932C15.1234 11.1254 14.9813 11.9754 14.5938 12.7222C14.2063 13.469 13.5932 14.0746 12.8416 14.4528C12.0901 14.8311 11.2385 14.9628 10.4078 14.8291C9.57714 14.6954 8.80977 14.3033 8.21485 13.7083C7.61993 13.1134 7.22774 12.346 7.09408 11.5154C6.96042 10.6847 7.09208 9.83307 7.47034 9.08155C7.8486 8.33003 8.4542 7.71691 9.201 7.32941C9.9478 6.94191 10.7978 6.79976 11.63 6.92317C12.4789 7.04906 13.2649 7.44464 13.8717 8.05148C14.4785 8.65832 14.8741 9.44425 15 10.2932Z" stroke="white" stroke-width="1.5" stroke-linecap="round" stroke-linejoin="round"/>
<path d="M16.5 5.42317H16.51" stroke="white" stroke-width="1.5" stroke-linecap="round" stroke-linejoin="round"/>
</svg>
