<svg width="22" height="21" viewBox="0 0 22 21" fill="none" xmlns="http://www.w3.org/2000/svg">
<path d="M15 6.92317C16.5913 6.92317 18.1174 7.55531 19.2426 8.68053C20.3679 9.80575 21 11.3319 21 12.9232V19.9232H17V12.9232C17 12.3927 16.7893 11.884 16.4142 11.509C16.0391 11.1339 15.5304 10.9232 15 10.9232C14.4696 10.9232 13.9609 11.1339 13.5858 11.509C13.2107 11.884 13 12.3927 13 12.9232V19.9232H9V12.9232C9 11.3319 9.63214 9.80575 10.7574 8.68053C11.8826 7.55531 13.4087 6.92317 15 6.92317V6.92317Z" stroke="white" stroke-width="1.5" stroke-linecap="round" stroke-linejoin="round"/>
<path d="M5 7.92317H1V19.9232H5V7.92317Z" stroke="white" stroke-width="1.5" stroke-linecap="round" stroke-linejoin="round"/>
<path d="M3 4.92317C4.10457 4.92317 5 4.02774 5 2.92317C5 1.8186 4.10457 0.923172 3 0.923172C1.89543 0.923172 1 1.8186 1 2.92317C1 4.02774 1.89543 4.92317 3 4.92317Z" stroke="white" stroke-width="1.5" stroke-linecap="round" stroke-linejoin="round"/>
</svg>
