<svg width="24" height="20" viewBox="0 0 24 20" fill="none" xmlns="http://www.w3.org/2000/svg">
<path d="M23 0.989548C22.0424 1.66503 20.9821 2.18166 19.86 2.51955C19.2577 1.82706 18.4573 1.33624 17.567 1.11347C16.6767 0.890708 15.7395 0.946744 14.8821 1.274C14.0247 1.60126 13.2884 2.18395 12.773 2.94326C12.2575 3.70258 11.9877 4.60188 12 5.51955V6.51955C10.2426 6.56512 8.50127 6.17536 6.93101 5.38499C5.36074 4.59463 4.01032 3.42818 3 1.98955C3 1.98955 -1 10.9895 8 14.9895C5.94053 16.3875 3.48716 17.0885 1 16.9895C10 21.9895 21 16.9895 21 5.48955C20.9991 5.211 20.9723 4.93314 20.92 4.65955C21.9406 3.65304 22.6608 2.38226 23 0.989548V0.989548Z" stroke="white" stroke-width="1.5" stroke-linecap="round" stroke-linejoin="round"/>
</svg>
